<svg width="531" height="657" viewBox="0 0 531 657" fill="none" xmlns="http://www.w3.org/2000/svg">
<mask id="mask0_5_13" style="mask-type:alpha" maskUnits="userSpaceOnUse" x="0" y="0" width="512" height="512">
<g clip-path="url(#clip0_5_13)">
<path d="M250 0.700012C218.1 3.80002 197.1 7.00003 171.6 12.7C127.5 22.4 101.1 36.7 80.8 61.9C65 81.5 54.5 103.1 48.1 129.1C44.4 144.3 42.7 149.2 36.5 163.4C28 182.9 29 189.8 42.2 203.5C46.5 208 50 212.5 50 213.4C50 214.3 48 219 45.5 223.9C36.7 241.4 24.7 260.6 11.5 278C3.10001 289 1.30001 292.2 0.400006 297.9C-0.999994 306.8 5.80001 315.9 19.1 322.9C29.3 328.3 32 330.6 32 334.2C32 336 29.9 341.3 27.3 346.4C24 352.9 22.7 356.8 22.6 359.9C22.5 363.9 22.9 364.6 28.4 369.7C33.8 374.7 34.2 375.3 33.1 377.6C32.5 379 32 382.3 32 384.9C32 391 34 393.6 43.2 399.5L50.2 404.1L49.6 411.3C47.8 433 47.8 434.5 49.5 440.9C54 458.3 64.3 467.8 79.5 468.7C85.5 469.1 89.1 468.5 104 464.5C113.6 462 130.2 457 140.9 453.5L160.3 447.1L163.1 449.1C173.8 456.7 186.7 478.7 193 500.1C194.4 504.9 196.1 508.3 197.8 509.9L200.4 512.3L310.2 511.8L420.1 511.4L422.7 508.7C427.5 504 426.2 499.1 415.4 482C403.3 462.6 394.3 430.6 391 395.1C389.5 378.2 392.2 352.9 396.9 340.7C398.6 336.3 398.2 333.4 395.6 330.4C392.8 327 387.2 326.6 384.1 329.4C380.3 332.8 375.7 351.3 374 370.3C370.9 403.5 382.5 459.3 398.1 486.4C400.2 490.2 401.8 493.5 401.5 493.8C401.2 494.1 357.9 494.6 305.2 494.8L209.4 495.3L207.6 489.4C203.5 476.2 192.9 456.7 183.7 445.7C181.5 443.1 179.9 440.7 180.2 440.5C180.4 440.2 187.8 437.6 196.6 434.5C205.3 431.5 215.7 427.4 219.7 425.6C240.9 415.5 252.8 401.7 253.3 386.4C253.5 379.9 250.6 376 245.5 376C241.6 376 237 379.4 237 382.1C237 392.7 229 402.1 213.9 409.3C196.3 417.8 108.6 446.7 87.2 451.1C70.4 454.6 62.1 441.4 66.4 418.1C67.8 410.6 67.9 407.9 67 403.4C65.6 396.8 61.2 390.6 54.8 386.5C52.2 384.8 50.1 383 50.1 382.5C50.1 381.9 50.9 380.4 52 379C54.2 376.2 54.6 370.1 52.8 367.9C51.8 366.7 45.6 361.7 41.1 358.3C40.9 358.2 42.4 354.7 44.5 350.6C53.5 332.8 49.1 319.2 31.3 310.2C24.6 306.7 17 301.4 17 300.1C17 299.6 21.5 293.1 27.1 285.6C40.2 268 51.5 249.8 60.1 232.7C65.7 221.5 67 218 67 214.2C67 207 63.1 199.8 55 192.1C49.6 186.9 48 184.7 48 182.6C48 181 50.1 175 52.6 169.1C58.6 155.5 60.4 150.1 64 135.6C69.6 113.5 75.1 100.3 85.5 84.5C105.7 53.7 130.5 38.8 178.8 28.5C200.5 23.9 223 20.5 244.4 18.4C271.1 15.8 291.8 17.4 314.7 23.5C324.7 26.3 327.5 25.9 330.4 21.8C332.4 19 332.4 15.1 330.5 12.3C327.9 8.70001 307.1 3.20001 287.8 1.10001C278.8 0.100037 258.2 -0.0999756 250 0.700012Z" fill="black"/>
<path d="M311.6 44.6C274 51.4 241.2 76.7 224.9 111.5C222.7 116.2 220.5 120 220 119.8C219.5 119.6 213.7 116.3 207.1 112.5L195.1 105.5L191 93.4C186.5 80.1 184.3 77 179.1 77C175 77 171 80.8 171 84.8C171 86.3 172.3 91.6 174 96.5C175.6 101.4 176.9 105.4 176.7 105.5C176.6 105.6 172.1 107.2 166.7 108.9C156.1 112.4 154 114.3 154 119.8C154 123.7 157.8 128 161.3 128C162.5 128 168.8 126.3 175.1 124.1L186.6 120.3L201.3 128.9C214.2 136.4 216 137.8 215.5 139.6C215.3 140.8 214.5 146.4 213.9 152C210.9 179.8 219.9 210.9 237.7 234.2L242 239.8L214.4 256L186.7 272.3L175.6 268.6C169.5 266.6 163.1 265 161.4 265C154.9 265 151.5 273.7 156.1 278.7C157.3 279.9 162.3 282.3 167.6 284L176.8 287.1L173.9 295.7C169.8 308 170.1 311.9 175.8 314.9C178.5 316.3 183.3 315.5 185.2 313.3C185.9 312.5 188.3 306.3 190.6 299.6L194.7 287.5L224.6 269.9L254.5 252.2L257 254.3C270.2 265.5 272.1 269.3 273 285.5C273.8 299.4 275.4 303.6 282.2 309.4C289.7 315.9 292.1 316.1 335.2 315.8L373.5 315.5L378.9 312.5C388.7 307.1 391.8 300.8 392.9 284.1C393.8 269.8 396.2 264.5 405.3 257.1L411.2 252.3L441.1 269.9L471 287.5L475 299.6C477.3 306.3 480 312.6 481.1 313.6C484.2 316.4 489.8 316 492.6 312.6C495.7 309.1 495.6 307.2 492 296.5C490.3 291.6 489.3 287.3 489.7 286.9C490.2 286.6 494.3 285 499 283.5C508.5 280.5 512 277.6 512 272.9C512 268.8 508.1 265 503.7 265C501.9 265 495.7 266.6 490 268.5C484.2 270.4 478.9 271.8 478.1 271.5C476.8 271 432.3 245.1 426.2 241.3C424 239.9 423.9 239.7 425.5 237.7C437.3 221.6 444.4 207.3 448.7 191.3C450.9 182.8 451.3 179.3 451.4 165C451.4 155.9 451.1 146 450.7 142.9L449.9 137.3L464.4 128.8L479 120.2L491.4 124.3C502.5 128 504 128.2 506.8 127.1C512.3 124.8 513.5 117.4 509 113.2C507.9 112.2 503 110.1 498 108.5C493.1 106.9 489 105.4 489 105.1C489 104.8 490.4 100.3 492.1 95.2C494 89.5 495 85 494.6 83.5C493.1 77.7 485.6 75 481.1 78.7C479.9 79.8 477.3 85.5 474.8 93L470.5 105.4L458 112.7C451.2 116.7 445.3 120 445 120C444.7 120 442.8 116.2 440.6 111.5C424.7 76.8 391.4 51.1 353.6 44.5C342.7 42.6 322.3 42.7 311.6 44.6ZM358.1 62.9C411.3 77.4 443.8 129.2 432.9 182.3C428.4 204.5 417.8 223 401.3 237.7C387.4 250 383.9 253.9 380.4 261.3C376.9 268.8 375.1 278 375 288.2C375 292.6 374.5 294.5 373.1 295.9C370.9 298.1 365.9 299.3 361.4 298.8L358.5 298.5L358 287.8C357.4 275.8 356.7 274.3 350.9 273.4C348 272.9 346.8 273.3 344.4 275.3C341.6 277.8 341.5 278.1 341.2 288.5L340.8 299.1L332.7 298.8L324.5 298.5L324.3 289.5C323.9 277.7 323.5 276.3 320 274.5C315.7 272.3 313.2 272.6 309.9 275.9C307.1 278.8 307 279.1 307 289V299.2L301 298.8C291.7 298.1 290.8 296.8 289.9 282.3C288.8 264.2 285 256.5 271.3 244.3C250.8 226.4 240.6 211.4 234.6 190.7C227.4 165.9 229.6 140.9 241 117.5C254.8 89 280.6 68.8 312 61.9C323.6 59.3 346.9 59.8 358.1 62.9Z" fill="black"/>
<path d="M277.3 139.1C270.3 141.8 262.8 149.1 259.3 156.5C256.9 161.7 256.5 163.7 256.6 171C256.6 177.4 257.2 180.7 258.8 184.2C263.5 194.7 275 203.1 286.5 204.5C297.1 205.9 309.9 200.4 316.9 191.7C324.6 181.9 326.2 167 320.6 155.7C317.2 148.7 309.6 141.7 302.4 139.1C295.2 136.3 284.4 136.4 277.3 139.1ZM299 156.2C308.2 162.5 309.7 173.9 302.4 181.9C288.5 197.4 264.5 178.2 276.3 161C281 154 292.3 151.7 299 156.2Z" fill="black"/>
<path d="M364 138.6C353.4 142.5 345.3 151.6 342.4 163C338.4 178.6 346.5 194.7 361.9 201.8C366.4 203.9 369 204.4 375.5 204.5C382.6 204.5 384.3 204.1 390.2 201.2C415.5 188.8 415.8 153.2 390.7 140.3C384 136.9 371 136.1 364 138.6ZM382.8 155.4C391.2 159.8 394.5 169.9 390.4 178.5C385.3 189.2 368.9 190.6 362 180.9C353.8 169.5 361.5 154 375.3 154C377.9 154 381.3 154.6 382.8 155.4Z" fill="black"/>
<path d="M328.2 206.6C327 207.4 323.7 212.6 321 218.1C314.6 230.7 314.5 234.6 320.1 237.5C324.3 239.7 326.8 239.3 330.1 236C332.5 233.7 333.2 233.4 333.7 234.6C334.4 236.4 339.2 239 341.8 239C344.7 239 348.8 235.3 349.5 232.1C350 229.8 348.9 226.8 344.6 218.1C341.5 212.1 338.1 206.6 337.1 206C334.3 204.5 330.8 204.8 328.2 206.6Z" fill="black"/>
<path d="M152.5 53.1C127.7 61.4 109.5 76.6 95.6 100.6C89.2 111.7 85.4 121.2 81.5 136.7C78.6 147.6 78.2 150.4 79.1 153C80.4 156.6 82.6 158 87.3 158C92.6 158 94.4 155.1 97.9 141.3C103.6 118.2 111.9 102.9 125.9 89C135.8 79.3 144.7 73.8 158.8 68.9C169.1 65.4 171.7 62.7 170.5 57C169 50.3 164.1 49.2 152.5 53.1Z" fill="black"/>
<path d="M71.9 172.3C65.7 177.1 67.9 186 75.6 187.6C80 188.5 85 184.1 85 179.4C85 172.9 76.9 168.5 71.9 172.3Z" fill="black"/>
</g>
</mask>
<g mask="url(#mask0_5_13)">
<path d="M1675 -56H-697V537H1675V-56Z" fill="url(#paint0_linear_5_13)"/>
</g>
<path d="M51.6396 566.853L62.2305 638H43.29L42.3672 625.212H35.7314L34.6328 638H15.4727L24.877 566.853H51.6396ZM41.8398 612.6C40.9023 604.543 39.9648 594.597 39.0273 582.761C37.1523 596.354 35.9805 606.301 35.5117 612.6H41.8398ZM82.9287 579.685L82.6211 585.046C83.9102 582.907 85.4775 581.311 87.3232 580.256C89.1982 579.172 91.3516 578.63 93.7832 578.63C96.8301 578.63 99.3203 579.348 101.254 580.783C103.188 582.219 104.433 584.035 104.989 586.232C105.546 588.4 105.824 592.033 105.824 597.131V638H88.0703V597.614C88.0703 593.601 87.9385 591.154 87.6748 590.275C87.4111 589.396 86.6787 588.957 85.4775 588.957C84.2178 588.957 83.4268 589.47 83.1045 590.495C82.7822 591.491 82.6211 594.187 82.6211 598.581V638H64.8672V579.685H82.9287ZM149.154 579.685L144.057 621.872C143.266 628.552 142.592 633.107 142.035 635.539C141.508 637.971 140.614 639.978 139.354 641.56C138.095 643.142 136.337 644.299 134.081 645.031C131.854 645.793 128.28 646.174 123.358 646.174H112.592V636.857C115.346 636.857 117.118 636.726 117.909 636.462C118.7 636.169 119.096 635.539 119.096 634.572C119.096 634.104 118.729 632.067 117.997 628.464L108.285 579.685H124.413L130.214 619.016L133.026 579.685H149.154ZM209.667 579.685L202.592 638H183.3C182.245 630.881 181.029 621.506 179.652 609.875C179.184 614.973 178.524 620.129 177.675 625.344L175.697 638H156.405L148.891 579.685H164.184C164.301 581.208 165.59 592.326 168.051 613.039C168.227 610.93 169.545 599.812 172.006 579.685H186.728L190.331 613.039C190.888 603.312 192.235 592.194 194.374 579.685H209.667ZM228.476 602.272H211.82V598.361C211.82 593.85 212.333 590.378 213.358 587.946C214.413 585.485 216.508 583.317 219.643 581.442C222.777 579.567 226.85 578.63 231.859 578.63C237.865 578.63 242.392 579.699 245.438 581.838C248.485 583.947 250.316 586.555 250.932 589.66C251.547 592.736 251.854 599.094 251.854 608.732V638H234.584V632.814C233.5 634.895 232.094 636.462 230.365 637.517C228.666 638.542 226.63 639.055 224.257 639.055C221.151 639.055 218.295 638.19 215.688 636.462C213.109 634.704 211.82 630.881 211.82 624.992V620.202C211.82 615.837 212.509 612.863 213.886 611.281C215.263 609.699 218.676 607.854 224.125 605.744C229.955 603.459 233.075 601.921 233.485 601.13C233.896 600.339 234.101 598.728 234.101 596.296C234.101 593.249 233.866 591.271 233.397 590.363C232.958 589.426 232.211 588.957 231.156 588.957C229.955 588.957 229.208 589.353 228.915 590.144C228.622 590.905 228.476 592.912 228.476 596.164V602.272ZM234.101 610.271C231.259 612.351 229.604 614.094 229.135 615.5C228.695 616.906 228.476 618.928 228.476 621.564C228.476 624.582 228.666 626.53 229.047 627.409C229.457 628.288 230.248 628.728 231.42 628.728C232.533 628.728 233.251 628.391 233.573 627.717C233.925 627.014 234.101 625.197 234.101 622.268V610.271ZM295.141 579.685L290.043 621.872C289.252 628.552 288.578 633.107 288.021 635.539C287.494 637.971 286.601 639.978 285.341 641.56C284.081 643.142 282.323 644.299 280.067 645.031C277.841 645.793 274.267 646.174 269.345 646.174H258.578V636.857C261.332 636.857 263.104 636.726 263.896 636.462C264.687 636.169 265.082 635.539 265.082 634.572C265.082 634.104 264.716 632.067 263.983 628.464L254.271 579.685H270.399L276.2 619.016L279.013 579.685H295.141ZM355.917 566.853V638H339.745V589.968L333.285 638H321.815L315.004 591.066V638H298.832V566.853H322.782C323.485 571.13 324.232 576.169 325.023 581.97L327.572 600.075L331.791 566.853H355.917ZM403.026 609.875H380.043V622.487C380.043 625.124 380.233 626.823 380.614 627.585C380.995 628.347 381.728 628.728 382.812 628.728C384.159 628.728 385.053 628.229 385.492 627.233C385.961 626.208 386.195 624.245 386.195 621.345V613.654H403.026V617.961C403.026 621.564 402.792 624.333 402.323 626.267C401.884 628.2 400.829 630.266 399.159 632.463C397.489 634.66 395.365 636.315 392.787 637.429C390.238 638.513 387.03 639.055 383.163 639.055C379.413 639.055 376.103 638.513 373.231 637.429C370.36 636.345 368.119 634.865 366.508 632.99C364.926 631.086 363.827 629.006 363.212 626.75C362.597 624.465 362.289 621.154 362.289 616.818V599.812C362.289 594.714 362.978 590.7 364.354 587.771C365.731 584.812 367.987 582.556 371.122 581.003C374.257 579.421 377.86 578.63 381.933 578.63C386.913 578.63 391.015 579.582 394.237 581.486C397.489 583.361 399.76 585.866 401.049 589.001C402.367 592.106 403.026 596.486 403.026 602.141V609.875ZM385.229 600.383V596.12C385.229 593.103 385.067 591.154 384.745 590.275C384.423 589.396 383.764 588.957 382.768 588.957C381.537 588.957 380.775 589.338 380.482 590.1C380.189 590.832 380.043 592.839 380.043 596.12V600.383H385.229ZM426.625 579.685L425.922 587.331C428.5 581.853 432.235 578.952 437.128 578.63V599.152C433.876 599.152 431.488 599.592 429.965 600.471C428.441 601.35 427.504 602.58 427.152 604.162C426.801 605.715 426.625 609.318 426.625 614.973V638H408.871V579.685H426.625ZM481.469 579.685V624.597C481.469 630.661 481.322 634.587 481.029 636.374C480.766 638.132 479.784 639.992 478.085 641.955C476.386 643.947 474.013 645.456 470.966 646.481C467.948 647.536 464.14 648.063 459.54 648.063C453.886 648.063 449.345 647.097 445.917 645.163C442.489 643.259 440.717 639.494 440.6 633.869H457.826C457.826 636.447 458.764 637.736 460.639 637.736C461.986 637.736 462.88 637.341 463.319 636.55C463.759 635.759 463.979 634.104 463.979 631.584V627.189C462.455 628.566 460.844 629.606 459.145 630.31C457.475 631.013 455.717 631.364 453.871 631.364C450.678 631.364 448.041 630.72 445.961 629.431C443.91 628.142 442.504 626.457 441.742 624.377C440.98 622.268 440.6 619.279 440.6 615.412V594.23C440.6 588.693 441.596 584.709 443.588 582.277C445.58 579.846 448.612 578.63 452.685 578.63C454.911 578.63 456.933 579.084 458.749 579.992C460.595 580.9 462.235 582.263 463.671 584.079L464.945 579.685H481.469ZM463.671 595.153C463.671 592.487 463.51 590.788 463.188 590.056C462.895 589.323 462.221 588.957 461.166 588.957C460.141 588.957 459.408 589.382 458.969 590.231C458.559 591.052 458.354 592.692 458.354 595.153V614.753C458.354 617.36 458.515 619.06 458.837 619.851C459.159 620.612 459.833 620.993 460.858 620.993C462.03 620.993 462.792 620.524 463.144 619.587C463.495 618.649 463.671 616.525 463.671 613.215V595.153ZM528.007 609.875H505.023V622.487C505.023 625.124 505.214 626.823 505.595 627.585C505.976 628.347 506.708 628.728 507.792 628.728C509.14 628.728 510.033 628.229 510.473 627.233C510.941 626.208 511.176 624.245 511.176 621.345V613.654H528.007V617.961C528.007 621.564 527.772 624.333 527.304 626.267C526.864 628.2 525.81 630.266 524.14 632.463C522.47 634.66 520.346 636.315 517.768 637.429C515.219 638.513 512.011 639.055 508.144 639.055C504.394 639.055 501.083 638.513 498.212 637.429C495.341 636.345 493.1 634.865 491.488 632.99C489.906 631.086 488.808 629.006 488.192 626.75C487.577 624.465 487.27 621.154 487.27 616.818V599.812C487.27 594.714 487.958 590.7 489.335 587.771C490.712 584.812 492.968 582.556 496.103 581.003C499.237 579.421 502.841 578.63 506.913 578.63C511.894 578.63 515.995 579.582 519.218 581.486C522.47 583.361 524.74 585.866 526.029 589.001C527.348 592.106 528.007 596.486 528.007 602.141V609.875ZM510.209 600.383V596.12C510.209 593.103 510.048 591.154 509.726 590.275C509.403 589.396 508.744 588.957 507.748 588.957C506.518 588.957 505.756 589.338 505.463 590.1C505.17 590.832 505.023 592.839 505.023 596.12V600.383H510.209Z" fill="#6C6C6C"/>
<defs>
<linearGradient id="paint0_linear_5_13" x1="-697" y1="-56" x2="1675" y2="-56" gradientUnits="userSpaceOnUse">
<stop stop-color="#135C08"/>
<stop offset="0.142857" stop-color="#3C6600"/>
<stop offset="0.285714" stop-color="#5D6F00"/>
<stop offset="0.428571" stop-color="#7D7700"/>
<stop offset="0.571429" stop-color="#9E7D00"/>
<stop offset="0.714286" stop-color="#BF8119"/>
<stop offset="0.857143" stop-color="#DF8532"/>
<stop offset="1" stop-color="#FF884D"/>
</linearGradient>
<clipPath id="clip0_5_13">
<rect width="512" height="512" fill="white"/>
</clipPath>
</defs>
</svg>
