<svg width="512" height="512" viewBox="0 0 512 512" fill="none" xmlns="http://www.w3.org/2000/svg">
<mask id="mask0_5_38" style="mask-type:alpha" maskUnits="userSpaceOnUse" x="0" y="0" width="512" height="512">
<g clip-path="url(#clip0_5_38)">
<path d="M250 0.700079C218.1 3.80008 197.1 7.00008 171.6 12.7001C127.5 22.4001 101.1 36.7001 80.8 61.9001C65 81.5001 54.5 103.1 48.1 129.1C44.4 144.3 42.7 149.2 36.5 163.4C28 182.9 29 189.8 42.2 203.5C46.5 208 50 212.5 50 213.4C50 214.3 48 219 45.5 223.9C36.7 241.4 24.7 260.6 11.5 278C3.10001 289 1.30001 292.2 0.400006 297.9C-0.999994 306.8 5.80001 315.9 19.1 322.9C29.3 328.3 32 330.6 32 334.2C32 336 29.9 341.3 27.3 346.4C24 352.9 22.7 356.8 22.6 359.9C22.5 363.9 22.9 364.6 28.4 369.7C33.8 374.7 34.2 375.3 33.1 377.6C32.5 379 32 382.3 32 384.9C32 391 34 393.6 43.2 399.5L50.2 404.1L49.6 411.3C47.8 433 47.8 434.5 49.5 440.9C54 458.3 64.3 467.8 79.5 468.7C85.5 469.1 89.1 468.5 104 464.5C113.6 462 130.2 457 140.9 453.5L160.3 447.1L163.1 449.1C173.8 456.7 186.7 478.7 193 500.1C194.4 504.9 196.1 508.3 197.8 509.9L200.4 512.3L310.2 511.8L420.1 511.4L422.7 508.7C427.5 504 426.2 499.1 415.4 482C403.3 462.6 394.3 430.6 391 395.1C389.5 378.2 392.2 352.9 396.9 340.7C398.6 336.3 398.2 333.4 395.6 330.4C392.8 327 387.2 326.6 384.1 329.4C380.3 332.8 375.7 351.3 374 370.3C370.9 403.5 382.5 459.3 398.1 486.4C400.2 490.2 401.8 493.5 401.5 493.8C401.2 494.1 357.9 494.6 305.2 494.8L209.4 495.3L207.6 489.4C203.5 476.2 192.9 456.7 183.7 445.7C181.5 443.1 179.9 440.7 180.2 440.5C180.4 440.2 187.8 437.6 196.6 434.5C205.3 431.5 215.7 427.4 219.7 425.6C240.9 415.5 252.8 401.7 253.3 386.4C253.5 379.9 250.6 376 245.5 376C241.6 376 237 379.4 237 382.1C237 392.7 229 402.1 213.9 409.3C196.3 417.8 108.6 446.7 87.2 451.1C70.4 454.6 62.1 441.4 66.4 418.1C67.8 410.6 67.9 407.9 67 403.4C65.6 396.8 61.2 390.6 54.8 386.5C52.2 384.8 50.1 383 50.1 382.5C50.1 381.9 50.9 380.4 52 379C54.2 376.2 54.6 370.1 52.8 367.9C51.8 366.7 45.6 361.7 41.1 358.3C40.9 358.2 42.4 354.7 44.5 350.6C53.5 332.8 49.1 319.2 31.3 310.2C24.6 306.7 17 301.4 17 300.1C17 299.6 21.5 293.1 27.1 285.6C40.2 268 51.5 249.8 60.1 232.7C65.7 221.5 67 218 67 214.2C67 207 63.1 199.8 55 192.1C49.6 186.9 48 184.7 48 182.6C48 181 50.1 175 52.6 169.1C58.6 155.5 60.4 150.1 64 135.6C69.6 113.5 75.1 100.3 85.5 84.5001C105.7 53.7001 130.5 38.8001 178.8 28.5001C200.5 23.9001 223 20.5001 244.4 18.4001C271.1 15.8001 291.8 17.4001 314.7 23.5001C324.7 26.3001 327.5 25.9001 330.4 21.8001C332.4 19.0001 332.4 15.1001 330.5 12.3001C327.9 8.70008 307.1 3.20008 287.8 1.10008C278.8 0.100079 258.2 -0.0999206 250 0.700079Z" fill="black"/>
<path d="M311.6 44.6001C274 51.4001 241.2 76.7001 224.9 111.5C222.7 116.2 220.5 120 220 119.8C219.5 119.6 213.7 116.3 207.1 112.5L195.1 105.5L191 93.4001C186.5 80.1001 184.3 77.0001 179.1 77.0001C175 77.0001 171 80.8001 171 84.8001C171 86.3001 172.3 91.6001 174 96.5001C175.6 101.4 176.9 105.4 176.7 105.5C176.6 105.6 172.1 107.2 166.7 108.9C156.1 112.4 154 114.3 154 119.8C154 123.7 157.8 128 161.3 128C162.5 128 168.8 126.3 175.1 124.1L186.6 120.3L201.3 128.9C214.2 136.4 216 137.8 215.5 139.6C215.3 140.8 214.5 146.4 213.9 152C210.9 179.8 219.9 210.9 237.7 234.2L242 239.8L214.4 256L186.7 272.3L175.6 268.6C169.5 266.6 163.1 265 161.4 265C154.9 265 151.5 273.7 156.1 278.7C157.3 279.9 162.3 282.3 167.6 284L176.8 287.1L173.9 295.7C169.8 308 170.1 311.9 175.8 314.9C178.5 316.3 183.3 315.5 185.2 313.3C185.9 312.5 188.3 306.3 190.6 299.6L194.7 287.5L224.6 269.9L254.5 252.2L257 254.3C270.2 265.5 272.1 269.3 273 285.5C273.8 299.4 275.4 303.6 282.2 309.4C289.7 315.9 292.1 316.1 335.2 315.8L373.5 315.5L378.9 312.5C388.7 307.1 391.8 300.8 392.9 284.1C393.8 269.8 396.2 264.5 405.3 257.1L411.2 252.3L441.1 269.9L471 287.5L475 299.6C477.3 306.3 480 312.6 481.1 313.6C484.2 316.4 489.8 316 492.6 312.6C495.7 309.1 495.6 307.2 492 296.5C490.3 291.6 489.3 287.3 489.7 286.9C490.2 286.6 494.3 285 499 283.5C508.5 280.5 512 277.6 512 272.9C512 268.8 508.1 265 503.7 265C501.9 265 495.7 266.6 490 268.5C484.2 270.4 478.9 271.8 478.1 271.5C476.8 271 432.3 245.1 426.2 241.3C424 239.9 423.9 239.7 425.5 237.7C437.3 221.6 444.4 207.3 448.7 191.3C450.9 182.8 451.3 179.3 451.4 165C451.4 155.9 451.1 146 450.7 142.9L449.9 137.3L464.4 128.8L479 120.2L491.4 124.3C502.5 128 504 128.2 506.8 127.1C512.3 124.8 513.5 117.4 509 113.2C507.9 112.2 503 110.1 498 108.5C493.1 106.9 489 105.4 489 105.1C489 104.8 490.4 100.3 492.1 95.2001C494 89.5001 495 85.0001 494.6 83.5001C493.1 77.7001 485.6 75.0001 481.1 78.7001C479.9 79.8001 477.3 85.5001 474.8 93.0001L470.5 105.4L458 112.7C451.2 116.7 445.3 120 445 120C444.7 120 442.8 116.2 440.6 111.5C424.7 76.8001 391.4 51.1001 353.6 44.5001C342.7 42.6001 322.3 42.7001 311.6 44.6001ZM358.1 62.9001C411.3 77.4001 443.8 129.2 432.9 182.3C428.4 204.5 417.8 223 401.3 237.7C387.4 250 383.9 253.9 380.4 261.3C376.9 268.8 375.1 278 375 288.2C375 292.6 374.5 294.5 373.1 295.9C370.9 298.1 365.9 299.3 361.4 298.8L358.5 298.5L358 287.8C357.4 275.8 356.7 274.3 350.9 273.4C348 272.9 346.8 273.3 344.4 275.3C341.6 277.8 341.5 278.1 341.2 288.5L340.8 299.1L332.7 298.8L324.5 298.5L324.3 289.5C323.9 277.7 323.5 276.3 320 274.5C315.7 272.3 313.2 272.6 309.9 275.9C307.1 278.8 307 279.1 307 289V299.2L301 298.8C291.7 298.1 290.8 296.8 289.9 282.3C288.8 264.2 285 256.5 271.3 244.3C250.8 226.4 240.6 211.4 234.6 190.7C227.4 165.9 229.6 140.9 241 117.5C254.8 89.0001 280.6 68.8001 312 61.9001C323.6 59.3001 346.9 59.8001 358.1 62.9001Z" fill="black"/>
<path d="M277.3 139.1C270.3 141.8 262.8 149.1 259.3 156.5C256.9 161.7 256.5 163.7 256.6 171C256.6 177.4 257.2 180.7 258.8 184.2C263.5 194.7 275 203.1 286.5 204.5C297.1 205.9 309.9 200.4 316.9 191.7C324.6 181.9 326.2 167 320.6 155.7C317.2 148.7 309.6 141.7 302.4 139.1C295.2 136.3 284.4 136.4 277.3 139.1ZM299 156.2C308.2 162.5 309.7 173.9 302.4 181.9C288.5 197.4 264.5 178.2 276.3 161C281 154 292.3 151.7 299 156.2Z" fill="black"/>
<path d="M364 138.6C353.4 142.5 345.3 151.6 342.4 163C338.4 178.6 346.5 194.7 361.9 201.8C366.4 203.9 369 204.4 375.5 204.5C382.6 204.5 384.3 204.1 390.2 201.2C415.5 188.8 415.8 153.2 390.7 140.3C384 136.9 371 136.1 364 138.6ZM382.8 155.4C391.2 159.8 394.5 169.9 390.4 178.5C385.3 189.2 368.9 190.6 362 180.9C353.8 169.5 361.5 154 375.3 154C377.9 154 381.3 154.6 382.8 155.4Z" fill="black"/>
<path d="M328.2 206.6C327 207.4 323.7 212.6 321 218.1C314.6 230.7 314.5 234.6 320.1 237.5C324.3 239.7 326.8 239.3 330.1 236C332.5 233.7 333.2 233.4 333.7 234.6C334.4 236.4 339.2 239 341.8 239C344.7 239 348.8 235.3 349.5 232.1C350 229.8 348.9 226.8 344.6 218.1C341.5 212.1 338.1 206.6 337.1 206C334.3 204.5 330.8 204.8 328.2 206.6Z" fill="black"/>
<path d="M152.5 53.1001C127.7 61.4001 109.5 76.6001 95.6 100.6C89.2 111.7 85.4 121.2 81.5 136.7C78.6 147.6 78.2 150.4 79.1 153C80.4 156.6 82.6 158 87.3 158C92.6 158 94.4 155.1 97.9 141.3C103.6 118.2 111.9 102.9 125.9 89.0001C135.8 79.3001 144.7 73.8001 158.8 68.9001C169.1 65.4001 171.7 62.7001 170.5 57.0001C169 50.3001 164.1 49.2001 152.5 53.1001Z" fill="black"/>
<path d="M71.9 172.3C65.7 177.1 67.9 186 75.6 187.6C80 188.5 85 184.1 85 179.4C85 172.9 76.9 168.5 71.9 172.3Z" fill="black"/>
</g>
</mask>
<g mask="url(#mask0_5_38)">
<path d="M1675 -56H-697V537H1675V-56Z" fill="url(#paint0_linear_5_38)"/>
</g>
<defs>
<linearGradient id="paint0_linear_5_38" x1="-697" y1="-56" x2="1675" y2="-56" gradientUnits="userSpaceOnUse">
<stop stop-color="#135C08"/>
<stop offset="0.142857" stop-color="#3C6600"/>
<stop offset="0.285714" stop-color="#5D6F00"/>
<stop offset="0.428571" stop-color="#7D7700"/>
<stop offset="0.571429" stop-color="#9E7D00"/>
<stop offset="0.714286" stop-color="#BF8119"/>
<stop offset="0.857143" stop-color="#DF8532"/>
<stop offset="1" stop-color="#FF884D"/>
</linearGradient>
<clipPath id="clip0_5_38">
<rect width="512" height="512" fill="white"/>
</clipPath>
</defs>
</svg>
